<?xml version="1.0" encoding="UTF-8"?><svg id="Layer_1" xmlns="http://www.w3.org/2000/svg" viewBox="0 0 1024 348.17908"><g id="Group_101"><g id="Path_58"><path d="M172.13409,207.78985c8.27311-23.22764,16.46446-46.4799,25.03055-69.60258,8.40939-23.18131,17.12948-46.255,25.87953-69.32053,8.87134-23.0301,17.76449-46.04108,27.20954-68.86674-6.44296,23.84771-13.4433,47.5101-20.45861,71.16567-7.13932,23.61058-14.30862,47.213-21.79272,70.7078-7.3192,23.55468-15.02132,46.97313-22.63351,70.42159-7.5863,23.4607-15.6073,46.7701-23.38846,70.16675l-5.33506,16.03931-8.26221-14.83329c-12.98133-23.30258-25.65469-46.76602-38.50111-70.13947-12.56843-23.52474-25.31263-46.95408-37.65893-70.60691l-18.54943-35.45674-18.26052-35.61893C23.43753,47.99933,11.39511,24.17749,0,0,14.42719,22.5027,28.20844,45.36104,42.04281,68.1867l20.4695,34.39386,20.18334,34.55464c13.47326,23.0301,26.54455,46.27413,39.7916,69.42267,10.26311,18.42315,20.62673,36.78755,30.86122,55.22116l18.78562-53.98918Z"/></g><g id="Path_59"><path d="M218.73113,213.0241c7.62364-2.07719,15.42068-3.45564,23.29443-4.11812,7.72946-.71771,15.49153-1.02521,23.25355-.92124,7.76246,.08334,15.51482,.58372,23.22359,1.49897,7.85626,.86252,15.61652,2.44582,23.18269,4.73003-7.62208,2.08717-15.41956,3.47069-23.29443,4.13318-7.72946,.71663-15.49176,1.01913-23.25355,.90618-7.76259-.09848-15.51454-.60659-23.22357-1.52217-7.85447-.86177-15.6141-2.43717-23.18271-4.70683Z"/></g><g id="Path_60"><path d="M242.33082,180.47275c-3.72026,11.44003-7.30831,22.91557-11.24112,34.28482-3.88923,11.38014-7.64627,22.81069-11.64722,34.15266l-9.32637,26.13905,17.50275,.64945,26.21339,1.30001c8.74325,.4701,17.4824,1.09698,26.22158,1.6802,8.73508,.68136,17.47423,1.35316,26.21748,2.27714-8.74325,.9239-17.4824,1.59711-26.21748,2.27714-8.73915,.58189-17.47833,1.20603-26.22158,1.67613l-26.21339,1.30409-26.22158,.9689-8.49525,.31615,2.58917-8.49525,10.51343-34.52877c3.5431-11.49734,7.33827-22.9115,10.99721-34.37065,3.61394-11.47147,7.55222-22.84063,11.39511-34.23575,3.8429-11.39511,7.71031-22.78748,11.80121-34.10491l1.74019-4.80905,4.7491,.11719c10.92634,.27256,21.85267,.4088,32.77492,.87898,10.92634,.42377,21.84859,.72495,32.77084,1.35316,10.92634,.50686,21.85132,1.13924,32.77492,1.89695,10.91907,.71214,21.84223,1.61283,32.76948,2.70216-10.92633,1.07844-21.85131,1.98279-32.77493,2.71323-10.92271,.75863-21.84768,1.39101-32.77492,1.89695-10.92225,.62688-21.8445,.9239-32.77084,1.35316-9.21884,.3991-18.4406,.55846-27.6628,.75905l-9.46331,29.8478Z"/></g><g id="Path_61"><path d="M442.70605,190.94511l-13.4542-13.02225c-8.95312-8.70509-17.99752-17.30664-26.80347-26.16436l-6.71006-6.74826,7.98013-4.86494c14.23641-8.67923,28.31882-17.59825,42.69284-26.05257,14.30862-8.56337,28.61725-17.1145,43.09893-25.40256,14.39448-8.42031,28.97564-16.54351,43.5609-24.66531,14.6493-8.01417,29.31769-16.00247,44.27906-23.51251-13.31928,10.15233-26.93565,19.81542-40.56699,29.45672-13.6954,9.53908-27.3976,19.07816-41.2906,28.30651-13.80441,9.37007-27.77781,18.47449-41.74983,27.55977-11.26964,7.45826-22.72893,14.60786-34.14448,21.82939l19.93535,19.76369,13.28113,13.19933c4.4602,4.37438,8.76505,8.89315,13.15439,13.33016l5.92105,5.98921-6.74004,4.57599c-10.37307,7.04119-20.6235,14.25822-31.09877,21.15635-10.47527,6.89813-20.81156,13.9884-31.38358,20.74339-21.00506,13.72424-42.24043,27.11853-63.92003,39.89675,19.12042-16.35271,38.68097-32.10582,58.46094-47.52914,9.82117-7.81114,19.87537-15.29931,29.80553-22.96057,7.71817-5.95467,15.56397-11.72987,23.38316-17.54252l-7.69137-7.34228Z"/></g><g id="Path_62"><path d="M594.55871,213.0241c7.62373-2.07686,15.42072-3.45531,23.29443-4.11812,7.73083-.71771,15.49427-1.02521,23.25765-.92124,7.76109,.08342,15.5121,.5838,23.21949,1.49897,7.85631,.8621,15.61661,2.44549,23.1827,4.73003-7.62194,2.08784-15.41949,3.47136-23.29444,4.13318-7.72811,.71663-15.48903,1.01913-23.24947,.90618-7.76302-.09848-15.51545-.60659-23.22492-1.52217-7.85535-.86177-15.61587-2.43725-23.18543-4.70683Z"/></g><g id="Path_63"><path d="M618.16794,180.47275c-3.71888,11.44003-7.31102,22.91557-11.24522,34.28482-3.88923,11.38014-7.64625,22.81069-11.64722,34.15266l-9.32632,26.13888,17.50267,.64961,26.21748,1.30001c8.73916,.4701,17.47833,1.09698,26.21748,1.6802,8.73916,.68136,17.47833,1.35316,26.21748,2.27714-8.73916,.9239-17.47833,1.59711-26.21748,2.27714-8.73916,.58189-17.47833,1.20603-26.21748,1.67613l-26.21748,1.30409-26.21476,.9689-8.50205,.31615,2.58917-8.49525,10.50935-34.52877c3.55127-11.49734,7.33827-22.9115,10.99719-34.37065,3.61394-11.47147,7.55222-22.84063,11.39511-34.23575,3.8429-11.39511,7.7103-22.78748,11.80121-34.10491l1.7402-4.80905,4.75319,.11719c10.92633,.27256,21.84859,.4088,32.77084,.87898,10.92633,.42377,21.85267,.72495,32.77493,1.35316,10.9218,.50686,21.84541,1.13924,32.77084,1.89695,10.9227,.71214,21.84722,1.61283,32.77356,2.70216-10.92634,1.07844-21.85131,1.98279-32.77493,2.71323-10.9227,.75863-21.84632,1.39101-32.77083,1.89695-10.92225,.62688-21.84859,.9239-32.77493,1.35316-9.22027,.39916-18.44055,.55851-27.66328,.75915l-9.45873,29.84771Z"/></g><g id="Path_64"><path d="M773.57458,334.00678c22.75753,.13624,45.51505,.69908,68.27257,1.10106,22.75753,.52599,45.52322,1.09016,68.28075,1.916,22.75753,.76994,45.52322,1.7252,68.28075,3.01299-22.75071,1.42403-45.50824,2.51419-68.26167,3.41497-22.75753,.95392-45.51505,1.653-68.26576,2.31665-22.75753,.53281-45.51505,1.22649-68.27257,1.49897-22.75752,.36796-45.51505,.78899-68.27257,.87075l-11.46734,.04092,4.83222-10.44119,19.47744-42.09188,19.83448-41.93111c13.12032-27.9986,26.75849-55.75732,40.20042-83.61003,13.68722-27.7356,27.36763-55.47253,41.41188-83.03904,14.04425-27.56651,28.18119-55.08668,42.99674-82.29355-11.40874,28.80256-23.47159,57.29579-35.65164,85.73321-12.18004,28.43742-24.71167,56.71939-37.24194,84.99188-12.78373,28.15796-25.3576,56.41548-38.45476,84.42488l-19.48699,42.08506-14.92629,31.52492,56.71427,.47453Z"/></g><g id="Path_65"><path d="M544.53168,192.08302l-13.45828-13.02225c-8.95311-8.70235-17.99751-17.30664-26.80073-26.16436l-6.71006-6.75233,7.98013-4.86494c14.23231-8.67923,28.31472-17.59825,42.69011-26.04849,14.30862-8.56744,28.61725-17.11858,43.09893-25.40664,14.39448-8.42438,28.97564-16.54351,43.55817-24.66531,14.6534-8.01009,29.31769-16.00113,44.2886-23.50977-13.31928,10.14551-26.93565,19.81542-40.56699,29.45672-13.69949,9.53908-27.39761,19.07816-41.29059,28.30792-13.80032,9.366-27.76963,18.46633-41.74984,27.55844-11.26292,7.45563-22.72538,14.6079-34.14303,21.82737l19.93662,19.76306,13.28249,13.19933c4.46021,4.37297,8.76505,8.89315,13.15439,13.33424l5.91696,5.98921-6.74004,4.57599c-10.37035,7.04119-20.6194,14.2514-31.09468,21.14953-10.47528,6.89813-20.81155,13.99522-31.38766,20.75163-21.01598,13.72266-42.25544,27.12094-63.92687,39.89924,19.11632-16.35271,38.67689-32.10582,58.46096-47.52914,9.82117-7.81521,19.87537-15.30339,29.80555-22.96464,7.71853-5.95495,15.56469-11.7304,23.38423-17.54333l-7.68835-7.34148Z"/></g><g id="Path_66"><path d="M884.40099,195.49808l-13.96521-13.52645c-9.29515-9.03214-18.68161-17.97436-27.82551-27.16461l-6.71415-6.7441,7.98012-4.86902c14.7774-9.02124,29.40354-18.27553,44.31721-27.06372,14.85371-8.90405,29.70743-17.79445,44.72194-26.42053,14.93139-8.75824,30.05765-17.21939,45.18391-25.67379,15.18894-8.35077,30.39425-16.67568,45.9007-24.52632-13.86166,10.48344-28.01629,20.48996-42.18863,30.46787-14.24185,9.87835-28.48098,19.74863-42.90952,29.32173-14.34542,9.70942-28.85572,19.1477-43.37421,28.57092-11.80512,7.79584-23.80775,15.28314-35.76614,22.84644l20.95876,20.76487,13.79351,13.70361c4.62509,4.53516,9.1071,9.22427,13.66814,13.83436l5.91423,5.98097-6.74004,4.57741c-10.76554,7.31916-21.3948,14.81149-32.26662,21.9876-10.87183,7.1761-21.58967,14.55116-32.55689,21.58562-21.78862,14.27045-43.8021,28.22475-66.26255,41.56173,19.8958-16.91963,40.23994-33.21778,60.80756-49.19438,10.21227-8.09326,20.65756-15.85941,30.97476-23.79863,8.10536-6.23718,16.3436-12.29105,24.55484-18.38753l-8.20621-7.83405Z"/></g></g></svg>