<?xml version="1.0" encoding="UTF-8"?><svg id="Layer_2" xmlns="http://www.w3.org/2000/svg" viewBox="0 0 1024 350.08"><defs><style>.cls-1{fill:#f2f2f2;}</style></defs><g id="Layer_1-2"><g id="Group_101"><g id="Path_58"><path class="cls-1" d="M0,0C14.43,22.5,28.21,45.36,42.04,68.19l20.47,34.39,20.18,34.55c13.47,23.03,26.54,46.27,39.79,69.42,12.98,23.3,26.12,46.51,38.96,69.88l-13.6,1.21c8.11-23.28,15.98-46.65,24.28-69.86,8.27-23.23,16.46-46.48,25.03-69.6,8.41-23.18,17.13-46.25,25.88-69.32,8.87-23.03,17.76-46.04,27.21-68.87-6.44,23.85-13.44,47.51-20.46,71.17-7.14,23.61-14.31,47.21-21.79,70.71-7.32,23.55-15.02,46.97-22.63,70.42-7.59,23.46-15.61,46.77-23.39,70.17l-5.34,16.04-8.26-14.83c-12.98-23.3-25.65-46.77-38.5-70.14-12.57-23.52-25.31-46.95-37.66-70.61l-18.55-35.46-18.26-35.62C23.44,48,11.4,24.18,0,0Z"/></g><g id="Path_59"><path class="cls-1" d="M218.73,213.02c7.62-2.08,15.42-3.46,23.29-4.12,7.73-.72,15.49-1.03,23.25-.92,7.76,.08,15.51,.58,23.22,1.5,7.86,.86,15.62,2.45,23.18,4.73-7.62,2.09-15.42,3.47-23.29,4.13-7.73,.72-15.49,1.02-23.25,.91-7.76-.1-15.51-.61-23.22-1.52-7.85-.86-15.61-2.44-23.18-4.71Z"/></g><g id="Path_60"><path class="cls-1" d="M377.78,143.9c-10.93,1.08-21.85,1.98-32.77,2.71-10.92,.76-21.85,1.39-32.77,1.9-10.92,.63-21.84,.92-32.77,1.35-10.92,.47-21.85,.61-32.77,.88l6.5-4.69c-3.46,11.53-7.13,22.98-10.85,34.42-3.72,11.44-7.31,22.92-11.24,34.28-3.89,11.38-7.65,22.81-11.65,34.15l-12.13,33.99-5.92-8.18,26.22,.97,26.21,1.3c8.74,.47,17.48,1.1,26.22,1.68,8.74,.68,17.47,1.35,26.22,2.28-8.74,.92-17.48,1.6-26.22,2.28-8.74,.58-17.48,1.21-26.22,1.68l-26.21,1.3-26.22,.97-8.5,.32,2.59-8.5,10.51-34.53c3.54-11.5,7.34-22.91,11-34.37,3.61-11.47,7.55-22.84,11.4-34.24,3.84-11.4,7.71-22.79,11.8-34.1l1.74-4.81,4.75,.12c10.93,.27,21.85,.41,32.77,.88,10.93,.42,21.85,.72,32.77,1.35,10.93,.51,21.85,1.14,32.77,1.9,10.92,.71,21.84,1.61,32.77,2.7Z"/></g><g id="Path_61"><path class="cls-1" d="M338.75,286.32c19.12-16.35,38.68-32.11,58.46-47.53,9.82-7.81,19.88-15.3,29.81-22.96,9.93-7.66,20.07-15.03,30.1-22.55l-.82,10.56c-4.52-4.3-9.13-8.52-13.59-12.89l-13.45-13.02c-8.95-8.71-18-17.31-26.8-26.16l-6.71-6.75,7.98-4.86c14.24-8.68,28.32-17.6,42.69-26.05,14.31-8.56,28.62-17.11,43.1-25.4,14.39-8.42,28.98-16.54,43.56-24.67,14.65-8.01,29.32-16,44.28-23.51-13.32,10.15-26.94,19.82-40.57,29.46-13.7,9.54-27.4,19.08-41.29,28.31-13.8,9.37-27.78,18.47-41.75,27.56-13.91,9.21-28.11,17.94-42.16,26.92l1.27-11.62c9.03,8.63,17.81,17.5,26.68,26.29l13.28,13.2c4.46,4.37,8.77,8.89,13.15,13.33l5.92,5.99-6.74,4.58c-10.37,7.04-20.62,14.26-31.1,21.16-10.48,6.9-20.81,13.99-31.38,20.74-21.01,13.72-42.24,27.12-63.92,39.9Z"/></g><g id="Path_62"><path class="cls-1" d="M594.56,213.02c7.62-2.08,15.42-3.46,23.29-4.12,7.73-.72,15.49-1.03,23.26-.92,7.76,.08,15.51,.58,23.22,1.5,7.86,.86,15.62,2.45,23.18,4.73-7.62,2.09-15.42,3.47-23.29,4.13-7.73,.72-15.49,1.02-23.25,.91-7.76-.1-15.52-.61-23.22-1.52-7.86-.86-15.62-2.44-23.19-4.71Z"/></g><g id="Path_63"><path class="cls-1" d="M753.61,143.9c-10.93,1.08-21.85,1.98-32.77,2.71-10.92,.76-21.85,1.39-32.77,1.9-10.92,.63-21.85,.92-32.77,1.35-10.92,.47-21.84,.61-32.77,.88l6.49-4.69c-3.46,11.53-7.12,22.98-10.84,34.42-3.72,11.44-7.31,22.92-11.25,34.28-3.89,11.38-7.65,22.81-11.65,34.15l-12.13,33.99-5.91-8.18,26.21,.97,26.22,1.3c8.74,.47,17.48,1.1,26.22,1.68,8.74,.68,17.48,1.35,26.22,2.28-8.74,.92-17.48,1.6-26.22,2.28-8.74,.58-17.48,1.21-26.22,1.68l-26.22,1.3-26.21,.97-8.5,.32,2.59-8.5,10.51-34.53c3.55-11.5,7.34-22.91,11-34.37,3.61-11.47,7.55-22.84,11.4-34.24,3.84-11.4,7.71-22.79,11.8-34.1l1.74-4.81,4.75,.12c10.93,.27,21.85,.41,32.77,.88,10.93,.42,21.85,.72,32.77,1.35,10.92,.51,21.85,1.14,32.77,1.9,10.92,.71,21.85,1.61,32.77,2.7Z"/></g><g id="Path_64"><path class="cls-1" d="M862.62,4.77c-11.41,28.8-23.47,57.3-35.65,85.73-12.18,28.44-24.71,56.72-37.24,84.99-12.78,28.16-25.36,56.42-38.45,84.42l-19.49,42.09-19.85,41.92-6.64-10.4c22.76-.05,45.52,.24,68.27,.48,22.76,.14,45.52,.7,68.27,1.1,22.76,.53,45.52,1.09,68.28,1.92,22.76,.77,45.52,1.73,68.28,3.01-22.75,1.42-45.51,2.51-68.26,3.41-22.76,.95-45.52,1.65-68.27,2.32-22.76,.53-45.52,1.23-68.27,1.5-22.76,.37-45.52,.79-68.27,.87l-11.47,.04,4.83-10.44,19.48-42.09,19.83-41.93c13.12-28,26.76-55.76,40.2-83.61,13.69-27.74,27.37-55.47,41.41-83.04,14.04-27.57,28.18-55.09,43-82.29Z"/></g><g id="Path_65"><path class="cls-1" d="M440.57,287.46c19.12-16.35,38.68-32.11,58.46-47.53,9.82-7.82,19.88-15.3,29.81-22.96,9.93-7.66,20.07-15.03,30.1-22.55l-.82,10.57c-4.52-4.3-9.13-8.52-13.58-12.9l-13.46-13.02c-8.95-8.7-18-17.31-26.8-26.16l-6.71-6.75,7.98-4.86c14.23-8.68,28.31-17.6,42.69-26.05,14.31-8.57,28.62-17.12,43.1-25.41,14.39-8.42,28.98-16.54,43.56-24.67,14.65-8.01,29.32-16,44.29-23.51-13.32,10.15-26.94,19.82-40.57,29.46-13.7,9.54-27.4,19.08-41.29,28.31-13.8,9.37-27.77,18.47-41.75,27.56-13.9,9.2-28.1,17.94-42.15,26.91l1.27-11.61c9.03,8.63,17.81,17.51,26.68,26.29l13.28,13.2c4.46,4.37,8.77,8.89,13.15,13.33l5.92,5.99-6.74,4.58c-10.37,7.04-20.62,14.25-31.09,21.15-10.48,6.9-20.81,14-31.39,20.75-21.02,13.72-42.26,27.12-63.93,39.9Z"/></g><g id="Path_66"><path class="cls-1" d="M776.27,294.71c19.9-16.92,40.24-33.22,60.81-49.19,10.21-8.09,20.66-15.86,30.97-23.8,10.32-7.94,20.85-15.58,31.27-23.39l-.82,10.57c-4.7-4.47-9.47-8.86-14.1-13.39l-13.97-13.53c-9.3-9.03-18.68-17.97-27.83-27.16l-6.71-6.74,7.98-4.87c14.78-9.02,29.4-18.28,44.32-27.06,14.85-8.9,29.71-17.79,44.72-26.42,14.93-8.76,30.06-17.22,45.18-25.67,15.19-8.35,30.39-16.68,45.9-24.53-13.86,10.48-28.02,20.49-42.19,30.47-14.24,9.88-28.48,19.75-42.91,29.32-14.35,9.71-28.86,19.15-43.37,28.57-14.44,9.54-29.19,18.62-43.78,27.94l1.27-11.62c9.37,8.97,18.49,18.17,27.7,27.29l13.79,13.7c4.63,4.54,9.11,9.22,13.67,13.83l5.91,5.98-6.74,4.58c-10.77,7.32-21.39,14.81-32.27,21.99-10.87,7.18-21.59,14.55-32.56,21.59-21.79,14.27-43.8,28.22-66.26,41.56Z"/></g></g></g></svg>