<?xml version="1.0" encoding="UTF-8"?><svg id="Layer_1" xmlns="http://www.w3.org/2000/svg" viewBox="0 0 993.09497 132.57428"><defs><style>.cls-1{fill:#f2f2f2;}</style></defs><path class="cls-1" d="M989.97363,6.24268H3.12131c-1.72373,0-3.12131-1.39758-3.12131-3.12131S1.39758,.00006,3.12131,.00006H989.97363c1.72375,0,3.12134,1.39758,3.12134,3.12131s-1.39758,3.12131-3.12134,3.12131Z"/><path class="cls-1" d="M644.94049,132.57428c-1.72375,0-3.12134-1.39758-3.12134-3.12134V3.12131c0-1.72372,1.39758-3.12131,3.12134-3.12131s3.12134,1.39758,3.12134,3.12131v126.33163c0,1.72375-1.39758,3.12134-3.12134,3.12134Z"/><path class="cls-1" d="M332.80923,132.57428c-1.72372,0-3.12131-1.39758-3.12131-3.12134V3.12131c0-1.72372,1.39758-3.12131,3.12131-3.12131s3.12131,1.39758,3.12131,3.12131v126.33163c0,1.72375-1.39758,3.12134-3.12131,3.12134Z"/><g><path class="cls-1" d="M456.07135,53.64609l-.76508,4.48004h-1.91196c-4.58823,0-6.17252,2.78601-6.77377,6.11841l-.60049,3.27753h5.95456l-.65613,4.0975h-6.00867l-3.76981,21.41406h-4.75284l3.76981-21.41406h-4.91669l.71021-4.0975h4.97079l.43741-2.62219c1.14688-6.66479,4.75284-11.25381,11.58148-11.25381h2.73114l.00003,.00003Z"/><path class="cls-1" d="M476.71957,67.52206h4.75208l-4.47928,25.51157h-4.75284l.81995-4.53412c-2.24039,3.05884-6.17328,5.18948-10.27078,5.18948-6.66479,0-11.52661-5.62689-10.16104-13.43857,1.36633-7.53885,7.86652-13.3837,15.0777-13.3837,3.82391,0,7.15631,1.63837,8.30392,4.58823l.71021-3.93289h.00009Zm-9.3967,3.82391c-4.6431,0-9.0134,4.0975-9.88745,8.90442-.87405,4.86182,2.13065,8.95929,6.88351,8.95929,4.53412,0,9.28622-3.76981,10.16028-8.95929,.92892-5.24435-2.84012-8.90442-7.15631-8.90442h-.00003Z"/><path class="cls-1" d="M485.29175,93.03363l4.48004-25.51154h4.75208l-4.47928,25.51154h-4.75284Zm5.19025-34.9075c.32767-1.80298,2.07578-3.16855,3.87802-3.16855,1.85785,0,3.16855,1.36557,2.84088,3.16855-.32767,1.80222-2.07578,3.16855-3.98776,3.16855-1.80298,0-3.0596-1.36633-2.73114-3.16855Z"/><path class="cls-1" d="M515.00824,67.52206l-.71021,4.0975h-5.51715l-3.76904,21.41406h-4.7536l3.77057-21.41406h-4.58899l.71021-4.0975h4.58899l1.69324-9.61465h4.7536l-1.69479,9.61465h5.51718Z"/><path class="cls-1" d="M541.93872,78.2836l-2.6214,14.75003h-4.75208l2.56653-14.47647c.71021-4.26132-1.36554-6.99246-4.91669-6.99246s-8.24829,2.13065-9.23285,7.64783l-2.40344,13.82111h-4.7536l6.93915-39.38751h4.7536l-3.1701,17.86371c2.02094-3.22266,6.44684-4.6431,9.28772-4.6431,6.3371,0,9.61389,4.26056,8.30316,11.41687Z"/></g><g><path class="cls-1" d="M42.58504,79.31995c1.25813-7.16165,7.74232-11.8558,14.22651-11.8558,3.53205,0,6.38741,1.40369,7.98389,3.58157l-3.14494,2.75781c-1.11334-1.45169-3.04892-2.3707-5.41962-2.3707-4.45183,0-8.56456,3.24173-9.38756,7.88712s2.17791,7.93588,6.62974,7.93588c2.41871,0,4.59662-.91901,6.24186-2.37146l2.17715,2.75858c-2.3707,2.22592-5.7092,3.58081-9.24201,3.58081-6.48419,0-11.32314-4.74216-10.06501-11.90381h-.00001Z"/><path class="cls-1" d="M66.53289,79.31995c1.25889-7.16165,7.45274-11.8558,13.88817-11.8558s11.0328,4.69415,9.77468,11.8558c-1.25813,7.16165-7.49999,11.90381-13.93617,11.90381s-10.98403-4.74216-9.72668-11.90381Zm19.45334,0c.82224-4.64539-2.12914-7.88712-6.24263-7.88712-4.1615,0-8.12944,3.24173-8.95244,7.88712-.82224,4.69415,2.03312,7.93588,6.19386,7.93588,4.16226,0,8.22698-3.24173,9.00121-7.93588Z"/><path class="cls-1" d="M131.95091,77.57794l-2.32269,13.06516h-4.21027l2.27469-12.82285c.62868-3.77515-.96779-6.29141-4.30705-6.29141-4.01595-.048-6.58097,2.75858-7.45198,7.79108l-1.98359,11.32315h-4.21027l2.27469-12.82281c.62868-3.82315-.96779-6.29141-4.01671-6.29141-3.19371,0-6.72652,2.08112-7.59677,6.87207l-2.12914,12.24216h-4.21027l3.96794-22.59827h4.2095l-.62868,3.53281c1.54846-2.46747,4.74217-4.11349,7.98389-4.11349,3.29049,0,5.85551,1.74203,6.62974,4.79095,2.75858-4.01672,6.43618-4.79095,8.71011-4.79095,5.66196,0,8.12944,3.77515,7.01686,10.1138l.00002,.00003Z"/><path class="cls-1" d="M174.52452,77.57794l-2.32269,13.06516h-4.2095l2.27393-12.82285c.62944-3.77515-.96779-6.29141-4.30705-6.29141-4.01595-.048-6.58096,2.75858-7.45122,7.79108l-1.98434,11.32315h-4.2095l2.27393-12.82281c.62944-3.82315-.96779-6.29141-4.01595-6.29141-3.19447,0-6.72575,2.08112-7.59753,6.87207l-2.12914,12.24216h-4.2095l3.9687-22.59827h4.2095l-.62944,3.53281c1.54846-2.46747,4.74141-4.11349,7.98465-4.11349,3.2905,0,5.85551,1.74203,6.62975,4.79095,2.75706-4.01672,6.43466-4.79095,8.70859-4.79095,5.66196,0,8.12944,3.77515,7.01686,10.1138l-.00003,.00003Z"/><path class="cls-1" d="M199.48436,68.04483h4.21103l-3.9687,22.59827h-4.2095l.58067-3.38727c-1.88834,2.70981-5.71072,3.96793-8.17821,3.96793-5.66196,0-8.46777-3.77438-7.35519-10.11301l2.32269-13.06592h4.2095l-2.27393,12.96838c-.67821,3.82315,1.16135,6.24265,4.35429,6.24265,3.14571,0,7.25919-1.88681,8.08218-6.77454l2.22514-12.43649h.00002Z"/><path class="cls-1" d="M230.15948,77.57794l-2.32269,13.06516h-4.21103l2.27545-12.82285c.62791-3.77515-1.21011-6.19385-4.35582-6.19385s-7.30643,1.88681-8.17821,6.77454l-2.12914,12.24216h-4.2095l3.96718-22.59827h4.21103l-.62944,3.53281c1.79079-2.85461,5.7092-4.11349,8.22697-4.11349,5.61166,0,8.51656,3.77515,7.35519,10.1138Z"/><path class="cls-1" d="M234.84602,90.6431l3.96718-22.59827h4.21103l-3.9687,22.59827h-4.2095Zm4.59662-30.92126c.29111-1.59647,1.83955-2.80582,3.4368-2.80582,1.64449,0,2.80583,1.20935,2.51472,2.80582-.28957,1.59723-1.83804,2.80734-3.5313,2.80734-1.59723,0-2.70981-1.21011-2.42024-2.80734h.00002Z"/><path class="cls-1" d="M261.1684,68.04483l-.62943,3.62958h-4.88773l-3.33926,18.96869h-4.2095l3.33926-18.96869h-4.06473l.62944-3.62958h4.06319l1.50122-8.51654h4.2095l-1.49969,8.51654h4.88773Z"/><path class="cls-1" d="M281.29538,68.04483h4.54785l-19.93646,33.58304h-4.45184l6.77454-11.66226-5.22607-21.92081h4.54938l3.9184,16.59799,9.82422-16.59799v.00003Z"/></g><g><path class="cls-1" d="M765.83197,55.75391l-.6767,3.96719h-1.69324c-4.0647,0-5.46686,2.46826-6.00031,5.41962l-.53345,2.90338h5.27637l-.58221,3.62958h-5.32208l-3.33771,18.96869h-4.21106l3.33923-18.96869h-4.35583l.62946-3.62958h4.40308l.38715-2.32269c1.01654-5.90277,4.20947-9.96747,10.26007-9.96747h2.41718l.00006-.00003Z"/><path class="cls-1" d="M784.12091,68.04407h4.20947l-3.96564,22.59827h-4.21106l.72699-4.01672c-1.98438,2.70981-5.46838,4.59738-9.09875,4.59738-5.9043,0-10.20978-4.9845-9.00122-11.90381,1.21014-6.67776,6.96808-11.8558,13.35699-11.8558,3.38647,0,6.33862,1.45245,7.35522,4.06473l.62793-3.48404h.00006Zm-8.32147,3.38803c-4.11499,0-7.98615,3.62881-8.76038,7.88712-.77423,4.30704,1.88831,7.93588,6.09937,7.93588,4.0144,0,8.22394-3.33926,8.99817-7.93588,.823-4.64539-2.51471-7.88712-6.3371-7.88712h-.00006Z"/><path class="cls-1" d="M791.08289,84.01337h3.91992c-.33838,1.93558,1.16138,3.53204,3.87115,3.53204,2.85614,0,4.79169-1.40292,5.13007-3.24249,.28955-1.69324-.87177-2.56427-2.56348-2.95139l-3.00244-.72623c-3.53131-1.01581-5.41962-2.85461-4.78864-6.48343,.6767-3.72638,4.35431-6.6785,8.90369-6.6785,3.82239,0,7.45123,2.03311,6.62976,6.58096h-4.06622c.28955-1.74203-1.30615-2.90338-3.09692-2.90338-2.17639,0-3.87115,1.40369-4.20947,3.14569-.24078,1.54846,1.06378,2.37146,2.46899,2.70981l3.19141,.823c4.45337,1.16135,5.17883,3.96719,4.74292,6.5322-.72546,4.2095-5.27332,6.87131-9.96747,6.87131-4.06622,0-7.79108-2.56427-7.16315-7.20966l-.00012,.00006Z"/><path class="cls-1" d="M835.88776,77.57718l-2.32269,13.06516h-4.20947l2.27393-12.82281c.63098-3.77515-1.21014-6.19385-4.35431-6.19385s-7.30798,1.88681-8.1767,6.77454l-2.13068,12.24216h-4.20947l6.14508-34.88843h4.20947l-2.80585,15.82297c1.79077-2.85461,5.71069-4.11349,8.22546-4.11349,5.61469,0,8.51654,3.77515,7.35522,10.1138v-.00003Z"/><path class="cls-1" d="M840.57581,90.64233l3.96869-22.59827h4.20947l-3.96869,22.59827h-4.20947Zm4.59662-30.92126c.2926-1.59647,1.84106-2.80582,3.43524-2.80582,1.646,0,2.80737,1.20935,2.51776,2.80582-.28955,1.59723-1.83801,2.80734-3.53284,2.80734-1.59723,0-2.70984-1.21011-2.42023-2.80734h.00006Z"/><path class="cls-1" d="M852.52765,79.31921c1.25586-7.16165,7.44971-11.8558,13.88739-11.8558,6.43463,0,11.03125,4.69415,9.7724,11.8558-1.25586,7.16165-7.49847,11.90381-13.93616,11.90381-6.43463,0-10.98248-4.74216-9.72363-11.90381Zm19.45032,0c.823-4.64539-2.12762-7.88712-6.24261-7.88712-4.16071,0-8.12946,3.24173-8.9494,7.88712-.823,4.69415,2.03009,7.93588,6.19385,7.93588,4.16071,0,8.22394-3.24173,8.99817-7.93588Z"/><path class="cls-1" d="M903.18188,77.57718l-2.32269,13.06516h-4.20947l2.27393-12.82281c.63098-3.77515-1.20709-6.19385-4.35278-6.19385s-7.30646,1.88681-8.17822,6.77454l-2.13068,12.24216h-4.20947l3.96869-22.59827h4.20947l-.62793,3.53281c1.78925-2.85461,5.70923-4.11349,8.22394-4.11349,5.61469,0,8.51654,3.77515,7.35522,10.1138v-.00003Z"/></g></svg>