<?xml version="1.0" encoding="UTF-8"?><svg id="Layer_1" xmlns="http://www.w3.org/2000/svg" viewBox="0 0 993.09492 548.17276"><defs><style>.cls-1{fill:#f2f2f2;}</style></defs><path class="cls-1" d="M989.97361,421.84113H3.12131c-1.72373,0-3.12131-1.39758-3.12131-3.12131s1.39758-3.12131,3.12131-3.12131H989.97361c1.72373,0,3.12131,1.39758,3.12131,3.12131s-1.39758,3.12131-3.12131,3.12131Z"/><path class="cls-1" d="M644.94051,548.17276c-1.72373,0-3.12131-1.39758-3.12131-3.12131v-126.33163c0-1.72373,1.39758-3.12131,3.12131-3.12131s3.12131,1.39758,3.12131,3.12131v126.33163c0,1.72373-1.39758,3.12131-3.12131,3.12131Z"/><path class="cls-1" d="M332.80923,548.17276c-1.72373,0-3.12131-1.39758-3.12131-3.12131v-126.33163c0-1.72373,1.39758-3.12131,3.12131-3.12131s3.12131,1.39758,3.12131,3.12131v126.33163c0,1.72373-1.39758,3.12131-3.12131,3.12131Z"/><g><path class="cls-1" d="M456.07136,469.24454l-.76509,4.48003h-1.91196c-4.58824,0-6.17252,2.78602-6.77377,6.11841l-.60049,3.27753h5.95457l-.65612,4.09749h-6.00868l-3.76981,21.41407h-4.75284l3.76981-21.41407h-4.91668l.71022-4.09749h4.97078l.43741-2.62218c1.14687-6.6648,4.75284-11.2538,11.58147-11.2538h2.73115Z"/><path class="cls-1" d="M476.71958,483.12052h4.75208l-4.47927,25.51155h-4.75284l.81995-4.53413c-2.2404,3.05883-6.17328,5.18949-10.27077,5.18949-6.6648,0-11.52661-5.6269-10.16103-13.43856,1.36634-7.53885,7.86653-13.3837,15.07771-13.3837,3.82391,0,7.15631,1.63838,8.30394,4.58824l.71022-3.93288Zm-9.39671,3.82391c-4.64311,0-9.0134,4.09749-9.88746,8.90443-.87406,4.86181,2.13066,8.9593,6.8835,8.9593,4.53413,0,9.28621-3.76981,10.16027-8.9593,.92893-5.24435-2.84012-8.90443-7.15631-8.90443Z"/><path class="cls-1" d="M485.29176,508.63207l4.48003-25.51155h4.75208l-4.47927,25.51155h-4.75284Zm5.19025-34.9075c.32768-1.80298,2.07579-3.16856,3.87802-3.16856,1.85785,0,3.16856,1.36557,2.84088,3.16856-.32768,1.80222-2.07579,3.16856-3.98775,3.16856-1.80298,0-3.05959-1.36634-2.73115-3.16856Z"/><path class="cls-1" d="M515.00824,483.12052l-.71022,4.09749h-5.51716l-3.76905,21.41407h-4.7536l3.77057-21.41407h-4.589l.71022-4.09749h4.589l1.69325-9.61465h4.7536l-1.69478,9.61465h5.51716Z"/><path class="cls-1" d="M541.93871,493.88204l-2.62142,14.75003h-4.75208l2.56655-14.47646c.71022-4.26132-1.36557-6.99247-4.91668-6.99247s-8.24831,2.13066-9.23287,7.64783l-2.40347,13.82111h-4.7536l6.93913-39.38752h4.7536l-3.17008,17.86372c2.02093-3.22266,6.44685-4.64311,9.28773-4.64311,6.33712,0,9.61389,4.26056,8.30318,11.41687Z"/></g><g><path class="cls-1" d="M42.58504,494.91841c1.25813-7.16165,7.74232-11.85581,14.22651-11.85581,3.53205,0,6.38741,1.40368,7.98389,3.58158l-3.14494,2.75782c-1.11334-1.45168-3.04892-2.3707-5.41962-2.3707-4.45183,0-8.56456,3.24172-9.38756,7.88711s2.17791,7.93588,6.62974,7.93588c2.41871,0,4.59662-.91902,6.24186-2.37147l2.17715,2.75858c-2.3707,2.22592-5.7092,3.58082-9.24201,3.58082-6.48419,0-11.32314-4.74217-10.06501-11.90382Z"/><path class="cls-1" d="M66.53289,494.91841c1.25889-7.16165,7.45274-11.85581,13.88817-11.85581s11.0328,4.69416,9.77468,11.85581c-1.25813,7.16165-7.49999,11.90382-13.93617,11.90382s-10.98403-4.74217-9.72667-11.90382Zm19.45334,0c.82224-4.64539-2.12914-7.88711-6.24263-7.88711-4.1615,0-8.12944,3.24172-8.95244,7.88711-.82224,4.69416,2.03312,7.93588,6.19386,7.93588,4.16226,0,8.22698-3.24172,9.00121-7.93588Z"/><path class="cls-1" d="M131.95091,493.17639l-2.3227,13.06516h-4.21027l2.27469-12.82283c.62868-3.77514-.96779-6.2914-4.30705-6.2914-4.01595-.04801-6.58097,2.75858-7.45198,7.79109l-1.98359,11.32314h-4.21027l2.27469-12.82283c.62868-3.82315-.96779-6.2914-4.01671-6.2914-3.19371,0-6.72652,2.08113-7.59677,6.87207l-2.12914,12.24216h-4.21027l3.96794-22.59827h4.2095l-.62868,3.53281c1.54846-2.46748,4.74217-4.11349,7.98389-4.11349,3.29049,0,5.85551,1.74202,6.62974,4.79094,2.75858-4.01671,6.43618-4.79094,8.71011-4.79094,5.66195,0,8.12944,3.77514,7.01686,10.11379Z"/><path class="cls-1" d="M174.52452,493.17639l-2.3227,13.06516h-4.2095l2.27393-12.82283c.62944-3.77514-.96779-6.2914-4.30705-6.2914-4.01595-.04801-6.58097,2.75858-7.45122,7.79109l-1.98435,11.32314h-4.2095l2.27393-12.82283c.62944-3.82315-.96779-6.2914-4.01595-6.2914-3.19447,0-6.72576,2.08113-7.59753,6.87207l-2.12914,12.24216h-4.2095l3.9687-22.59827h4.2095l-.62944,3.53281c1.54846-2.46748,4.74141-4.11349,7.98465-4.11349,3.29049,0,5.85551,1.74202,6.62974,4.79094,2.75706-4.01671,6.43466-4.79094,8.70858-4.79094,5.66195,0,8.12944,3.77514,7.01686,10.11379Z"/><path class="cls-1" d="M199.48436,483.64328h4.21103l-3.9687,22.59827h-4.2095l.58067-3.38726c-1.88833,2.70981-5.71072,3.96794-8.17821,3.96794-5.66195,0-8.46778-3.77438-7.3552-10.11302l2.3227-13.06593h4.2095l-2.27393,12.96838c-.67821,3.82315,1.16135,6.24263,4.35429,6.24263,3.1457,0,7.25919-1.88681,8.08219-6.77453l2.22515-12.43648Z"/><path class="cls-1" d="M230.15949,493.17639l-2.3227,13.06516h-4.21103l2.27545-12.82283c.62792-3.77514-1.21012-6.19386-4.35582-6.19386s-7.30643,1.88681-8.17821,6.77453l-2.12914,12.24216h-4.2095l3.96718-22.59827h4.21103l-.62944,3.53281c1.79079-2.8546,5.7092-4.11349,8.22698-4.11349,5.61166,0,8.51655,3.77514,7.3552,10.11379Z"/><path class="cls-1" d="M234.84603,506.24155l3.96718-22.59827h4.21103l-3.9687,22.59827h-4.2095Zm4.59662-30.92127c.2911-1.59647,1.83956-2.80583,3.4368-2.80583,1.64448,0,2.80583,1.20936,2.51473,2.80583-.28957,1.59723-1.83804,2.80735-3.53129,2.80735-1.59723,0-2.70981-1.21012-2.42024-2.80735Z"/><path class="cls-1" d="M261.16839,483.64328l-.62944,3.62959h-4.88772l-3.33926,18.96868h-4.2095l3.33926-18.96868h-4.06472l.62944-3.62959h4.06319l1.50122-8.51655h4.2095l-1.49969,8.51655h4.88772Z"/><path class="cls-1" d="M281.29537,483.64328h4.54785l-19.93647,33.58307h-4.45183l6.77453-11.66225-5.22607-21.92082h4.54937l3.91841,16.59798,9.82421-16.59798Z"/></g><g><path class="cls-1" d="M765.83195,471.35235l-.67669,3.96718h-1.69325c-4.06472,0-5.46687,2.46825-6.0003,5.41962l-.53343,2.90337h5.27636l-.5822,3.62959h-5.32208l-3.33773,18.96868h-4.21103l3.33926-18.96868h-4.35582l.62944-3.62959h4.40306l.38712-2.3227c1.01656-5.90276,4.2095-9.96747,10.2601-9.96747h2.41719Z"/><path class="cls-1" d="M784.12089,483.64251h4.2095l-3.96565,22.59827h-4.21103l.72699-4.01671c-1.98435,2.70981-5.46839,4.59738-9.09875,4.59738-5.90428,0-10.2098-4.9845-9.00121-11.90382,1.21012-6.67775,6.96809-11.85581,13.35702-11.85581,3.3865,0,6.33864,1.45245,7.3552,4.06472l.62792-3.48404Zm-8.32147,3.38803c-4.11501,0-7.98617,3.62883-8.7604,7.88711-.77423,4.30705,1.88833,7.93588,6.09936,7.93588,4.01442,0,8.22393-3.33926,8.99816-7.93588,.823-4.64539-2.51473-7.88711-6.33712-7.88711Z"/><path class="cls-1" d="M791.08288,499.61181h3.91993c-.33835,1.93558,1.16135,3.53205,3.87116,3.53205,2.85612,0,4.7917-1.40291,5.13005-3.24248,.28957-1.69325-.87177-2.56426-2.5635-2.95138l-3.00243-.72622c-3.53129-1.0158-5.41962-2.8546-4.78865-6.48343,.67669-3.72637,4.35429-6.67851,8.90367-6.67851,3.82239,0,7.45122,2.03312,6.62974,6.58097h-4.06624c.28957-1.74202-1.30614-2.90337-3.09693-2.90337-2.17638,0-3.87116,1.40368-4.2095,3.1457-.2408,1.54846,1.06381,2.37147,2.46901,2.70981l3.19142,.823c4.45336,1.16135,5.17882,3.96718,4.74293,6.5322-.72546,4.2095-5.27331,6.87131-9.96747,6.87131-4.06624,0-7.79109-2.56426-7.16317-7.20965Z"/><path class="cls-1" d="M835.88774,493.17563l-2.3227,13.06516h-4.2095l2.27393-12.82283c.63097-3.77514-1.21012-6.19386-4.35429-6.19386s-7.30796,1.88681-8.17668,6.77453l-2.13066,12.24216h-4.2095l6.14508-34.88844h4.2095l-2.80583,15.82298c1.79079-2.8546,5.71072-4.11349,8.22545-4.11349,5.61471,0,8.51655,3.77514,7.3552,10.11379Z"/><path class="cls-1" d="M840.57581,506.24079l3.9687-22.59827h4.2095l-3.9687,22.59827h-4.2095Zm4.59662-30.92127c.29262-1.59647,1.84109-2.80583,3.43527-2.80583,1.646,0,2.80735,1.20936,2.51778,2.80583-.28957,1.59723-1.83804,2.80735-3.53281,2.80735-1.59723,0-2.70981-1.21012-2.42024-2.80735Z"/><path class="cls-1" d="M852.52763,494.91765c1.25584-7.16165,7.4497-11.85581,13.8874-11.85581,6.43466,0,11.03128,4.69416,9.77239,11.85581-1.25584,7.16165-7.49847,11.90382-13.93617,11.90382-6.43466,0-10.98251-4.74217-9.72362-11.90382Zm19.45029,0c.823-4.64539-2.12761-7.88711-6.24263-7.88711-4.16073,0-8.12944,3.24172-8.94939,7.88711-.823,4.69416,2.03007,7.93588,6.19386,7.93588,4.16073,0,8.22393-3.24172,8.99816-7.93588Z"/><path class="cls-1" d="M903.18191,493.17563l-2.3227,13.06516h-4.2095l2.27393-12.82283c.63097-3.77514-1.20707-6.19386-4.35277-6.19386s-7.30643,1.88681-8.17821,6.77453l-2.13066,12.24216h-4.2095l3.9687-22.59827h4.2095l-.62792,3.53281c1.78927-2.8546,5.7092-4.11349,8.22393-4.11349,5.61471,0,8.51655,3.77514,7.3552,10.11379Z"/></g></svg>